<?xml version="1.0" encoding="UTF-8"?>
<svg version="1.1" xmlns="http://www.w3.org/2000/svg" width="50" height="50">
<path d="M0 0 C2.93230193 1.32120828 4.98664899 2.74638197 7.234375 5.0390625 C7.80800781 5.61914062 8.38164062 6.19921875 8.97265625 6.796875 C9.55917969 7.40015625 10.14570313 8.0034375 10.75 8.625 C11.35199219 9.23601563 11.95398438 9.84703125 12.57421875 10.4765625 C14.05405305 11.97988624 15.52764676 13.48934856 17 15 C20.76142088 11.85268865 24.25675511 8.74803736 27.5625 5.125 C30.04866841 2.58843628 30.67111842 2.05584782 34.3125 1.4375 C37 2 37 2 39 4 C39.53125 6.6953125 39.53125 6.6953125 39 10 C37.12551123 12.60727061 34.85851966 14.70771166 32.5 16.875 C31.87996094 17.46796875 31.25992188 18.0609375 30.62109375 18.671875 C29.09393227 20.12855211 27.54866657 21.56620705 26 23 C30.69766975 28.66129431 35.74723372 33.85228904 41 39 C39.59155282 42.21524305 37.89655214 44.32183868 35.375 46.75 C34.74335937 47.36359375 34.11171875 47.9771875 33.4609375 48.609375 C32.73777344 49.29773437 32.73777344 49.29773437 32 50 C29.06769807 48.67879172 27.01335101 47.25361803 24.765625 44.9609375 C24.19199219 44.38085938 23.61835937 43.80078125 23.02734375 43.203125 C22.44082031 42.59984375 21.85429687 41.9965625 21.25 41.375 C20.64800781 40.76398437 20.04601562 40.15296875 19.42578125 39.5234375 C17.94594695 38.02011376 16.47235324 36.51065144 15 35 C11.4782467 37.95767587 8.13284391 40.82306311 5.125 44.3125 C2.0437131 47.51938283 -0.92035098 47.7782352 -5.2421875 47.9921875 C-5.82226562 47.99476562 -6.40234375 47.99734375 -7 48 C-7.27771413 43.83428808 -7.39529253 40.82683777 -4.77490234 37.39599609 C-1.40990449 33.6922182 2.26722859 30.32740257 6 27 C1.30233025 21.33870569 -3.74723372 16.14771096 -9 11 C-7.59155282 7.78475695 -5.89655214 5.67816132 -3.375 3.25 C-2.74335937 2.63640625 -2.11171875 2.0228125 -1.4609375 1.390625 C-0.73777344 0.70226562 -0.73777344 0.70226562 0 0 Z M0 5 C-1.32 6.32 -2.64 7.64 -4 9 C-2.38989473 13.07376031 0.53822271 15.76507069 3.625 18.75 C4.3984375 19.50990234 4.3984375 19.50990234 5.1875 20.28515625 C6.45383339 21.52803902 7.7263144 22.76465276 9 24 C10.65 22.35 12.3 20.7 14 19 C13.34 18.34 12.68 17.68 12 17 C11.34 17 10.68 17 10 17 C10 16.01 10 15.02 10 14 C7.38148757 11.57286241 7.38148757 11.57286241 4 11 C4 10.01 4 9.02 4 8 C2.05990478 6.29467677 2.05990478 6.29467677 0 5 Z M28.54464722 8.21484375 C27.98061188 8.78332031 27.41657654 9.35179687 26.83544922 9.9375 C26.19493622 10.57816406 25.55442322 11.21882812 24.89450073 11.87890625 C24.20486237 12.57886719 23.515224 13.27882813 22.8046875 14 C21.74352219 15.06541016 21.74352219 15.06541016 20.66091919 16.15234375 C18.39422845 18.4302627 16.13457562 20.71502512 13.875 23 C12.34290523 24.54212114 10.81035896 26.08379386 9.27734375 27.625 C5.51296744 31.41147169 1.75435223 35.20359048 -2 39 C-1.34 40.32 -0.68 41.64 0 43 C2.90543872 41.68623083 4.96661059 40.27943508 7.20800781 38.01904297 C7.80832825 37.41857147 8.40864868 36.81809998 9.02716064 36.19943237 C9.66272888 35.55354156 10.29829712 34.90765076 10.953125 34.2421875 C11.94345734 33.24761032 11.94345734 33.24761032 12.95379639 32.23294067 C15.05727824 30.11828168 17.15369142 27.99676788 19.25 25.875 C20.67662261 24.43834443 22.10370072 23.00214102 23.53125 21.56640625 C27.02613661 18.04949196 30.51470062 14.52641453 34 11 C33.34 9.68 32.68 8.36 32 7 C29.93993681 6.78639257 29.93993681 6.78639257 28.54464722 8.21484375 Z M21 27 C19.68 28.65 18.36 30.3 17 32 C21.29 36.29 25.58 40.58 30 45 C31.32 44.34 32.64 43.68 34 43 C34.33 42.01 34.66 41.02 35 40 C34.34 39.34 33.68 38.68 33 38 C32.34 38 31.68 38 31 38 C31 37.01 31 36.02 31 35 C28.38148757 32.57286241 28.38148757 32.57286241 25 32 C25 31.01 25 30.02 25 29 C23.68 28.34 22.36 27.68 21 27 Z " fill="#EA5838" transform="translate(9,0)"/>
</svg>
