<?xml version="1.0" encoding="UTF-8"?>
<svg version="1.1" xmlns="http://www.w3.org/2000/svg" width="48" height="48">
<path d="M0 0 C0.99 0 1.98 0 3 0 C3 1.32 3 2.64 3 4 C4.32 4 5.64 4 7 4 C7 2.68 7 1.36 7 0 C7.99 0 8.98 0 10 0 C10 1.32 10 2.64 10 4 C11.32 4 12.64 4 14 4 C14 2.68 14 1.36 14 0 C14.99 0 15.98 0 17 0 C17 1.32 17 2.64 17 4 C18.32 4 19.64 4 21 4 C21 2.68 21 1.36 21 0 C21.99 0 22.98 0 24 0 C24 1.32 24 2.64 24 4 C24.99 4.33 25.98 4.66 27 5 C27 5.66 27 6.32 27 7 C28.32 7 29.64 7 31 7 C31 7.99 31 8.98 31 10 C29.68 10 28.36 10 27 10 C27 11.32 27 12.64 27 14 C28.32 14 29.64 14 31 14 C31 14.99 31 15.98 31 17 C29.68 17 28.36 17 27 17 C27 18.32 27 19.64 27 21 C28.32 21 29.64 21 31 21 C31 21.99 31 22.98 31 24 C29.68 24 28.36 24 27 24 C27 25.32 27 26.64 27 28 C28.32 28 29.64 28 31 28 C31 28.99 31 29.98 31 31 C29.68 31 28.36 31 27 31 C26.67 31.99 26.34 32.98 26 34 C25.34 34 24.68 34 24 34 C24 35.32 24 36.64 24 38 C23.01 38 22.02 38 21 38 C21 36.68 21 35.36 21 34 C19.68 34 18.36 34 17 34 C17 35.32 17 36.64 17 38 C16.01 38 15.02 38 14 38 C14 36.68 14 35.36 14 34 C12.68 34 11.36 34 10 34 C10 35.32 10 36.64 10 38 C9.01 38 8.02 38 7 38 C7 36.68 7 35.36 7 34 C5.68 34 4.36 34 3 34 C3 35.32 3 36.64 3 38 C2.01 38 1.02 38 0 38 C0 36.68 0 35.36 0 34 C-0.99 33.67 -1.98 33.34 -3 33 C-3 32.34 -3 31.68 -3 31 C-4.65 30.67 -6.3 30.34 -8 30 C-7.67 29.34 -7.34 28.68 -7 28 C-5.68 28 -4.36 28 -3 28 C-3 26.68 -3 25.36 -3 24 C-4.65 23.67 -6.3 23.34 -8 23 C-7.67 22.34 -7.34 21.68 -7 21 C-5.68 21 -4.36 21 -3 21 C-3 19.68 -3 18.36 -3 17 C-4.65 16.67 -6.3 16.34 -8 16 C-7.67 15.34 -7.34 14.68 -7 14 C-5.68 14 -4.36 14 -3 14 C-3 12.68 -3 11.36 -3 10 C-4.65 9.67 -6.3 9.34 -8 9 C-7.67 8.34 -7.34 7.68 -7 7 C-5.68 7 -4.36 7 -3 7 C-2.67 6.01 -2.34 5.02 -2 4 C-1.34 4 -0.68 4 0 4 C0 2.68 0 1.36 0 0 Z M6 15 C5.6823754 16.91006306 5.6823754 16.91006306 5.75 19 C5.74484375 19.70125 5.7396875 20.4025 5.734375 21.125 C5.84294485 23.2435669 5.84294485 23.2435669 8 25 C9.91006306 25.3176246 9.91006306 25.3176246 12 25.25 C12.70125 25.25515625 13.4025 25.2603125 14.125 25.265625 C16.2435669 25.15705515 16.2435669 25.15705515 18 23 C18.3176246 21.08993694 18.3176246 21.08993694 18.25 19 C18.25515625 18.29875 18.2603125 17.5975 18.265625 16.875 C18.15705515 14.7564331 18.15705515 14.7564331 16 13 C14.08993694 12.6823754 14.08993694 12.6823754 12 12.75 C11.29875 12.74484375 10.5975 12.7396875 9.875 12.734375 C7.7564331 12.84294485 7.7564331 12.84294485 6 15 Z " fill="#000000" transform="translate(12,5)"/>
</svg>
